<svg xmlns="http://www.w3.org/2000/svg" fill="none" viewBox="0 0 348 348"><path stroke="#000" stroke-width="2" d="M5 6h337v337H5z"/><rect width="71.6" height="42.4" x="137.7" y="25" fill="#000" stroke="#000" stroke-linecap="round" stroke-linejoin="round" stroke-width="1.7" rx="0" ry="0"/><text x="146" y="61.6" style="line-height:1.25;-inkscape-font-specification:'sans-serif, Normal'" fill="#fff" font-family="sans-serif" font-size="42.7"><tspan x="146" y="61.6">30</tspan></text><path fill="#000" stroke="#000" d="M200 271h38l-23-17 48-36-38-15 47-72-80 40 7-46-44 38-3-32-26 43z"/><path fill="#000" stroke="#fff" stroke-linecap="round" stroke-linejoin="round" stroke-width="2" d="M202 282c-3 4-40-2-45-1-5 2-31 28-36 27-5-2-10-38-13-43-4-4-37-21-36-26 0-5 33-22 36-26s8-41 13-42c6-2 31 24 36 26s42-4 45 0-14 37-14 42c0 6 17 38 14 43z"/></svg>